<?xml version="1.0" standalone="no"?>
<!DOCTYPE svg PUBLIC "-//W3C//DTD SVG 20010904//EN"
 "http://www.w3.org/TR/2001/REC-SVG-20010904/DTD/svg10.dtd">
<svg version="1.0" xmlns="http://www.w3.org/2000/svg"
 width="218.000000pt" height="191.000000pt" viewBox="0 0 218.000000 191.000000"
 preserveAspectRatio="xMidYMid meet">
<metadata>
Created by potrace 1.16, written by Peter Selinger 2001-2019
</metadata>
<g transform="translate(0.000000,191.000000) scale(0.100000,-0.100000)"
fill="#000000" stroke="none">
<path d="M137 1793 c-4 -3 -7 -384 -7 -845 l0 -838 975 0 975 0 0 845 0 845
-968 0 c-533 0 -972 -3 -975 -7z m1903 -838 l0 -805 -935 0 -935 0 0 805 0
805 935 0 935 0 0 -805z"/>
<path d="M330 1166 l0 -436 158 0 c180 0 247 13 331 63 68 41 115 95 155 177
30 62 31 71 31 190 0 119 -1 128 -31 191 -54 112 -128 180 -243 221 -45 16
-91 21 -228 25 l-173 6 0 -437z m397 366 c105 -40 183 -121 220 -226 27 -76
24 -233 -6 -308 -31 -79 -97 -150 -179 -190 -66 -33 -69 -33 -229 -36 l-163
-4 0 397 0 398 153 -5 c120 -4 163 -10 204 -26z"/>
<path d="M1184 1033 c29 -71 86 -207 126 -303 196 -470 174 -425 206 -425 28
0 31 5 206 425 161 387 175 425 157 428 -12 2 -23 2 -25 -1 -4 -4 -39 -87
-229 -549 -51 -125 -97 -234 -102 -242 -7 -12 -40 60 -128 271 -226 550 -214
523 -240 523 -24 0 -23 -2 29 -127z"/>
</g>
</svg>
